<?xml version="1.0" encoding="utf-8"?>
<!-- Generator: Adobe Illustrator 24.1.2, SVG Export Plug-In . SVG Version: 6.00 Build 0)  -->
<svg version="1.1" id="Layer_1" xmlns="http://www.w3.org/2000/svg" xmlns:xlink="http://www.w3.org/1999/xlink" x="0px" y="0px"
	 viewBox="0 0 392 100" style="enable-background:new 0 0 392 100;" xml:space="preserve">
<style type="text/css">
	.st0{fill:#FFFFFF;}
</style>
<g>
	<path class="st0" d="M93.14,84.7c0,4.77-1.51,8.49-4.52,11.18c-3.01,2.69-7.07,4.03-12.18,4.03c-7.71,0-12.95-2.58-15.73-7.73
		l5.52-4.09c1.26,1.99,2.65,3.45,4.19,4.35s3.54,1.36,6.01,1.36c3.08,0,5.53-0.9,7.38-2.7s2.76-4.26,2.76-7.38v-2.08
		c-2.56,2.69-6.26,4.03-11.11,4.03c-4.2,0-7.88-1.52-11.05-4.55c-3.16-3.03-4.74-6.74-4.74-11.11c0-4.38,1.57-8.06,4.71-11.05
		c3.14-2.99,6.83-4.48,11.08-4.48c4.85,0,8.56,1.34,11.11,4.03v-3.18h6.56V84.7z M83.62,77.06c1.97-1.84,2.96-4.19,2.96-7.05
		c0-2.9-0.99-5.26-2.96-7.08c-1.97-1.82-4.32-2.73-7.05-2.73c-2.95,0-5.4,0.9-7.38,2.7c-1.97,1.8-2.96,4.17-2.96,7.12
		c0,2.9,0.99,5.26,2.96,7.08s4.43,2.73,7.38,2.73C79.29,79.82,81.64,78.9,83.62,77.06z"/>
	<path class="st0" d="M124.72,55.19l-0.46,6.5c-0.35-0.04-0.97-0.06-1.88-0.06c-3.99,0-7.02,1.29-9.1,3.87
		c-2.08,2.58-3.12,6.14-3.12,10.69v11.37h-6.76V55.32h6.76v6.89c2.95-4.85,7.04-7.28,12.28-7.28
		C123.4,54.93,124.16,55.02,124.72,55.19z"/>
	<path class="st0" d="M160.72,87.56h-6.76v-3.96c-2.73,3.25-6.43,4.88-11.11,4.88c-3.9,0-7.03-1.27-9.39-3.8
		c-2.36-2.53-3.54-5.84-3.54-9.91V55.32h6.76v18.07c0,2.64,0.7,4.78,2.11,6.4c1.41,1.63,3.28,2.44,5.62,2.44
		c2.99,0,5.33-1.02,7.02-3.05c1.69-2.04,2.54-5.03,2.54-8.97V55.32h6.76V87.56z"/>
	<path class="st0" d="M200.69,59.22c3.16,3.21,4.74,7.28,4.74,12.22c0,4.98-1.57,9.07-4.71,12.25c-3.14,3.18-6.9,4.78-11.27,4.78
		c-4.85,0-8.75-1.54-11.7-4.61v14.75h-6.76V55.32h6.76v3.7c2.95-3.08,6.85-4.61,11.7-4.61C193.78,54.41,197.53,56.02,200.69,59.22z
		 M195.88,79.47c1.99-2.01,2.99-4.69,2.99-8.03s-1-6.01-2.99-8.03c-1.99-2.01-4.51-3.02-7.54-3.02c-2.82,0-5.29,1.03-7.41,3.09
		c-2.12,2.06-3.18,4.71-3.18,7.96c0,3.25,1.06,5.9,3.18,7.96c2.12,2.06,4.59,3.09,7.41,3.09C191.38,82.49,193.89,81.48,195.88,79.47
		z"/>
	<path class="st0" d="M239.72,59.32c3.31,3.14,4.97,7.18,4.97,12.12c0,4.94-1.67,8.99-5,12.15c-3.34,3.16-7.41,4.74-12.22,4.74
		c-4.85,0-8.96-1.58-12.32-4.74c-3.36-3.16-5.04-7.21-5.04-12.15c0-4.94,1.68-8.98,5.04-12.12s7.46-4.71,12.32-4.71
		S236.4,56.18,239.72,59.32z M234.94,79.4c2.12-2.06,3.18-4.71,3.18-7.96c0-3.25-1.06-5.9-3.18-7.96c-2.12-2.06-4.61-3.09-7.47-3.09
		c-2.95,0-5.47,1.03-7.57,3.09c-2.1,2.06-3.15,4.71-3.15,7.96c0,3.25,1.05,5.9,3.15,7.96c2.1,2.06,4.63,3.09,7.57,3.09
		C230.33,82.49,232.82,81.46,234.94,79.4z"/>
</g>
<g>
	<path class="st0" d="M285.27,87.56l-4.29-10.14H259.8l-4.29,10.14h-7.54l19.17-43.54h6.5l19.17,43.54H285.27z M270.39,52.53
		l-7.86,18.52h15.73L270.39,52.53z"/>
	<path class="st0" d="M345.97,87.56h-6.76V59.74l-14.95,27.81h-4.29l-14.95-27.81v27.81h-6.76V44.02h6.11l17.74,32.95l17.81-32.95
		h6.04V87.56z"/>
	<path class="st0" d="M375.87,44.02c4.77,0,8.57,1.29,11.41,3.87c2.84,2.58,4.26,5.97,4.26,10.17c0,4.25-1.42,7.67-4.26,10.27
		s-6.64,3.9-11.41,3.9h-12.67v15.34h-6.95V44.02H375.87z M375.87,65.85c2.69,0,4.81-0.7,6.37-2.11c1.56-1.41,2.34-3.3,2.34-5.69
		c0-2.3-0.78-4.16-2.34-5.59s-3.68-2.14-6.37-2.14h-12.67v15.53H375.87z"/>
</g>
<path class="st0" d="M30.91,0.45c-0.4,0-0.8,0.01-1.2,0.02C13.91,1.07,0.97,13.84,0.17,29.63c-0.46,9.14,3.06,17.46,8.99,23.38
	c4.39,4.38,6.99,10.24,6.99,16.44v3.56c0,8.15,6.61,14.76,14.76,14.76c8.15,0,14.76-6.61,14.76-14.76v-3.57
	c0-6.07,2.38-11.93,6.73-16.17c5.73-5.59,9.29-13.4,9.29-22.03C61.69,14.23,47.91,0.45,30.91,0.45z M46.82,47.54
	c-4.76,4.64-7.86,10.84-8.82,17.47H23.83c-0.97-6.59-4.08-12.74-9.01-17.66c-4.62-4.61-6.99-10.76-6.65-17.31
	C8.75,18.39,18.35,8.91,30.02,8.47c0.3-0.01,0.6-0.02,0.9-0.02c12.56,0,22.78,10.22,22.78,22.78
	C53.69,37.42,51.25,43.22,46.82,47.54z"/>
</svg>
